<?xml version="1.0" encoding="UTF-8"?>
<svg data-bbox="-0.001 0.001 182.575 187.789" viewBox="0 0 182.57 187.81" xmlns="http://www.w3.org/2000/svg" data-type="color">
    <g>
        <path d="M52.87 26.31c-8.09 0-15.63-.4-23.14-1.35-5.83-.74-11.6-1.76-17.21-3.53-3-.95-5.92-2.09-8.49-3.97-.45-.33-.86-.7-1.25-1.1-2-2.02-1.96-4.27.08-6.26 1.51-1.48 3.32-2.49 5.23-3.33 4.22-1.87 8.64-3.05 13.15-3.94C34.73.17 48.34-.43 62.03.27c6.33.33 12.63.98 18.87 2.09 5.05.9 10.05 2.04 14.77 4.12 1.64.72 3.18 1.67 4.71 2.61 1.03.63 1.84 1.53 2.37 2.65.61 1.27.45 2.47-.29 3.61-.99 1.51-2.45 2.49-3.99 3.36-2.9 1.63-6.03 2.68-9.22 3.54-5.54 1.49-11.19 2.45-16.89 3.04-6.65.69-13.32 1.04-19.49 1.01Z" fill="#0f4c54" data-color="1"/>
        <path d="M125.45 74.03c7.62.04 14.98 1.45 22 4.43 10.86 4.61 19.47 11.93 25.96 21.76 2.39 3.62 4.3 7.48 5.78 11.55 2.73 7.53 3.8 15.3 3.24 23.29-.34 4.87-1.29 9.61-2.88 14.21-2.68 7.76-6.87 14.62-12.52 20.58-4.75 5.02-10.24 9.04-16.44 12.09a56.7 56.7 0 0 1-17.94 5.39c-5.18.67-10.37.6-15.55-.16-4.11-.61-8.1-1.61-11.99-3.06-5.51-2.06-10.57-4.92-15.21-8.53-7.47-5.82-13.13-13.08-17.01-21.7-2.51-5.57-4.03-11.42-4.6-17.52-.57-6.04-.15-12.01 1.18-17.91.93-4.1 2.33-8.04 4.17-11.83 3.92-8.08 9.43-14.88 16.48-20.42 5.87-4.61 12.41-7.99 19.6-10.02 5.14-1.45 10.4-2.16 15.74-2.16Zm-.03 5.76c-2.07.17-4.15.29-6.22.5-4.39.45-8.63 1.56-12.72 3.18a50.8 50.8 0 0 0-15.47 9.58c-5.67 5.12-10.05 11.15-13.05 18.19a51 51 0 0 0-3.87 15.14c-.79 8.16.38 16.05 3.46 23.62 2.99 7.35 7.5 13.66 13.45 18.92 5.04 4.46 10.72 7.85 17.08 10.08 5.22 1.83 10.62 2.78 16.17 2.91 6.83.15 13.43-1.03 19.79-3.47 4.62-1.77 8.87-4.21 12.79-7.24 5.56-4.29 10.1-9.49 13.53-15.61 3.12-5.57 5.09-11.53 5.93-17.87 1.14-8.65.14-17.03-3.05-25.16a50.4 50.4 0 0 0-9.97-15.93c-5.89-6.39-12.89-11.08-21.12-13.92-5.42-1.87-11-2.79-16.74-2.92Z" fill="#c3af94" data-color="2"/>
        <path d="M.02 19.32c4.07 3.79 9.03 5.44 14.1 6.84 10.2 2.82 20.67 3.72 31.2 4.07 7.7.26 15.4.1 23.08-.49 7.75-.59 15.44-1.63 22.92-3.85 3.88-1.15 7.68-2.49 11.03-4.86.67-.48 1.29-1.03 1.97-1.58.03.06.09.14.09.21 0 4.37-.03 8.74.03 13.11.02 1.66-.64 2.93-1.72 4.08-1.52 1.61-3.38 2.76-5.37 3.62-2.33.99-4.71 1.88-7.13 2.62-4.23 1.28-8.59 1.99-12.98 2.52-11.13 1.35-22.31 1.66-33.51 1.14-5.28-.24-10.56-.65-15.83-1.19-5.82-.59-11.57-1.66-17.11-3.6-3.25-1.14-6.41-2.5-8.92-4.99C.65 35.79-.03 34.43 0 32.66c.07-4.41.02-8.82.02-13.34" fill="#0f4c54" data-color="1"/>
        <path d="M104.41 42.37v4.61c0 2.82-.06 5.64.02 8.46.05 1.67-.62 2.94-1.73 4.06-1.93 1.95-4.31 3.16-6.82 4.13-6.24 2.42-12.8 3.32-19.41 3.93-10.84.99-21.7 1.14-32.57.78-7.62-.25-15.24-.66-22.8-1.76-5.09-.74-10.09-1.82-14.79-4.02-1.86-.87-3.58-1.93-4.96-3.48C.5 58.11 0 57.04.01 55.69c.04-4.25 0-8.51 0-12.76 0-.12.04-.25.08-.5 1.11 1.27 2.4 2.1 3.77 2.8 3.32 1.68 6.86 2.68 10.48 3.45 8.14 1.73 16.42 2.35 24.71 2.79 9.54.5 19.09.47 28.63-.05 6.79-.37 13.56-.89 20.24-2.22 4.64-.93 9.24-2.06 13.41-4.41.97-.54 1.77-1.38 2.65-2.07.09-.07.17-.14.41-.34Z" fill="#0f4c54" data-color="1"/>
        <path d="M.05 63.84c1.62 1.77 3.51 2.85 5.54 3.71 3.27 1.39 6.7 2.23 10.17 2.88 5.35 1 10.75 1.54 16.16 1.94 11.79.87 23.59 1.12 35.41.46 6.26-.35 12.5-.8 18.69-1.83 4.42-.74 8.79-1.71 12.93-3.48 1.99-.85 3.84-1.91 5.33-3.63.05.18.1.29.1.41.01 2.89.01 5.78.03 8.67 0 .37-.03.6-.46.78-1.84.74-3.67 1.51-5.46 2.34a51.6 51.6 0 0 0-10.63 6.6c-2.16 1.74-4.17 3.65-6.27 5.46-.26.22-.63.37-.97.41-11.28 1.22-22.6 1.41-33.93 1.2-7.65-.15-15.29-.59-22.9-1.44-5.06-.57-10.06-1.45-14.9-3.07-2.25-.75-4.45-1.67-6.35-3.14-1.02-.79-1.89-1.7-2.34-2.94-.08-.21-.15-.45-.15-.67z" fill="#0f4c54" data-color="1"/>
        <path d="M.03 85.71c.36.33.61.58.89.8 2.37 1.91 5.18 2.9 8.03 3.76 6.03 1.81 12.23 2.62 18.47 3.19 10.79.99 21.6 1.28 32.43.99 5.34-.14 10.66-.53 16-.81.28-.01.55-.03.96-.05-.29.42-.51.75-.74 1.07-2.7 3.56-4.97 7.39-6.81 11.46-.64 1.42-1.19 2.89-1.74 4.35-.15.4-.35.54-.74.54-2.75.03-5.5.12-8.25.09-7.33-.07-14.66-.06-21.98-.31-8.09-.27-16.14-1.07-24.06-2.88-2.61-.6-5.21-1.25-7.63-2.45-1.79-.89-3.38-2.03-4.3-3.87-.28-.56-.49-1.22-.49-1.84C.03 95.5.05 91.24.04 86.99v-1.28Z" fill="#0f4c54" data-color="1"/>
        <path d="M.12 132c2.05 2.08 4.64 2.96 7.24 3.77 5.45 1.7 11.07 2.51 16.73 3.12 13.21 1.44 26.46 1.88 39.74 1.59.51-.01.75.11.83.65.74 4.72 2.12 9.25 4.07 13.61.25.56.51 1.13.8 1.78-.99.07-1.92.16-2.85.21-7.78.46-15.57.55-23.36.21-4.29-.19-8.59-.41-12.87-.74-5.88-.46-11.72-1.23-17.45-2.66-3.52-.88-6.98-1.92-10.08-3.89-1.21-.77-2.25-1.71-2.72-3.13-.07-.22-.14-.44-.14-.67-.02-4.53-.02-9.06-.02-13.59 0-.06.04-.12.1-.26Z" fill="#0f4c54" data-color="1"/>
        <path d="M.1 109.08c3.13 2.9 7.04 3.87 10.94 4.76 8.35 1.91 16.86 2.52 25.38 2.9 9.5.43 19 .34 28.5.14.18 0 .36.02.59.03-1.31 5.49-1.91 11-1.63 16.66-.35.03-.63.07-.92.06-8.37-.02-16.74.03-25.11-.11-3.57-.06-7.15-.47-10.71-.78-4.7-.4-9.35-1.17-13.94-2.28-3.32-.8-6.6-1.74-9.6-3.44-1.4-.79-2.74-1.67-3.36-3.26-.13-.33-.2-.71-.21-1.07-.02-4.46-.03-8.92-.03-13.39 0-.06.04-.12.09-.25Z" fill="#0f4c54" data-color="1"/>
        <path d="M125.42 177.41c-4.51.12-8.96-.44-13.27-1.73-13.06-3.91-22.79-11.92-29.02-24.04-4.11-7.99-5.52-16.54-4.6-25.47.51-4.98 1.83-9.73 3.9-14.27 3.15-6.89 7.7-12.69 13.61-17.41 5.08-4.06 10.78-6.91 17.06-8.59 7.06-1.88 14.18-2.13 21.35-.7 12.33 2.47 22.1 8.92 29.4 19.1 2.8 3.9 4.88 8.19 6.33 12.78 1.8 5.69 2.5 11.5 2.05 17.44-.49 6.48-2.26 12.59-5.34 18.32-4.19 7.79-10.14 13.87-17.76 18.33-6.08 3.56-12.64 5.58-19.63 6.22-.16.01-.32.03-.48.03h-3.6Zm3.77-80.79h.06c-.1-.85-.07-1.73-.32-2.53-.49-1.59-2.17-2.56-3.82-2.35-1.72.22-3.08 1.61-3.18 3.33-.05.83-.02 1.66 0 2.5.03 1.31.03 1.29-1.25 1.68-3.7 1.13-6.72 3.25-8.94 6.44-2.64 3.78-3.27 8.05-2.84 12.54.2 2.08.73 4.09 1.65 5.97 1.66 3.39 4.3 5.87 7.43 7.85 3.06 1.94 6.21 3.75 9.27 5.69 2.2 1.39 4.07 3.14 5.12 5.59 1.76 4.1.54 9.2-4.61 10.35-2.47.55-6.3-.03-7.72-3.28-.39-.89-.55-1.9-.67-2.87-.31-2.49-2.14-4.49-4.49-4.77-2.88-.35-5.22.94-6.06 3.49-1 3.05-.35 6.01 1.15 8.67 2.51 4.46 6.48 7.03 11.45 8.09.39.08.52.22.51.64-.02 1.11-.05 2.22.06 3.32.18 1.82 1.82 3.07 3.79 2.99 1.76-.07 3.24-1.54 3.29-3.29.03-.83.02-1.66.02-2.5 0-.99 0-.98.96-1.18 4.33-.93 7.95-3.03 10.73-6.51 2.02-2.53 3.03-5.46 3.35-8.65.61-6.01-1.03-11.23-5.48-15.45-2.57-2.44-5.57-4.26-8.63-5.99-2.27-1.28-4.6-2.48-6.57-4.22-2.75-2.42-3.82-5.42-3-9.03 1.21-5.35 6.57-5.73 9.51-3.93 1.76 1.07 2.39 2.83 2.72 4.77.47 2.77 2.96 4.58 5.93 4.34 2.45-.19 4.57-2.55 4.6-5.17.04-3.26-1.24-6.04-3.28-8.48-2.65-3.17-6.11-5-10.11-5.87-.49-.11-.74-.24-.66-.8.07-.45.01-.92.01-1.38Z" fill="#c3af94" data-color="2"/>
    </g>
</svg>
