<?xml version="1.0" encoding="UTF-8"?>
<svg data-bbox="0 0 219.08 196.84" viewBox="0 0 219.08 196.84" xmlns="http://www.w3.org/2000/svg" data-type="color">
    <g>
        <path d="M208.29 118.96v58.19c0 2.35.03 4.7.05 7.05.01 1.28-.12 1.44-1.35 1.44-6.14 0-12.29.01-18.43 0-1.61 0-1.83-.25-1.83-1.93V79.34c0-8.52 0-17.05.01-25.57 0-1.87.4-2.3 2.29-2.31 5.66-.02 11.32-.03 16.99-.03 1.76 0 2.26.5 2.26 2.28.01 11.51.01 23.01.02 34.52v30.72h-.01Z" fill="#0f4c54" data-color="1"/>
        <path d="M168.13 133.48v50.79c0 1.33-.07 1.39-1.35 1.39h-18.61c-1.41-.03-1.62-.24-1.62-1.64V82.55c.03-1.23.58-1.81 1.83-1.86.96-.04 1.93-.02 2.89-.02 4.85 0 9.7-.02 14.55 0 1.79 0 2.3.53 2.3 2.32v50.51h.02Z" fill="#0f4c54" data-color="1"/>
        <path d="M87.73 143.69v40.39c0 1.43-.09 1.54-1.54 1.54-6.2.02-12.41.03-18.61.03-.9 0-1.33-.38-1.39-1.28-.04-.6-.01-1.2-.01-1.81 0-26.05.01-52.11 0-78.16 0-3.12.31-3.39 3.36-3.35 5.21.06 10.42.03 15.63.04 2.05 0 2.54.48 2.54 2.56v40.03h.04Z" fill="#0f4c54" data-color="1"/>
        <path d="M0 196.84v-6.77h219.08v6.77z" fill="#0f4c54" data-color="1"/>
        <path d="M127.94 154.08v29.73c0 1.83 0 1.82-1.86 1.82-5.9 0-11.81 0-17.71.02-1.76 0-2.04-.26-2.03-2.02 0-11.87.01-23.74.01-35.6v-24.22c0-1.32.65-2.01 1.98-2.02 5.87-.02 11.75-.02 17.62-.02 1.28 0 2.01.8 2.01 2.12v30.18h-.01Z" fill="#0f4c54" data-color="1"/>
        <path d="M47.57 159.21v24.75c0 1.6-.11 1.68-1.69 1.68-5.99 0-11.98-.01-17.97 0-1.53 0-1.86-.29-1.86-1.82 0-15.02.02-30.05.03-45.07 0-1.57-.01-3.13 0-4.7 0-1.19.62-1.86 1.82-1.86 5.96-.01 11.92 0 17.88.01 1.15 0 1.8.73 1.8 1.9v25.11Z" fill="#0f4c54" data-color="1"/>
        <path d="M170.21 14.05c.03-7.87 6.31-14.1 14.12-14.05 7.71.05 14.03 6.38 14.03 14.04 0 7.89-6.39 14.26-14.23 14.2-7.91-.07-14.09-6.72-13.92-14.19" fill="#c3af94" data-color="2"/>
        <path d="M60.65 56.19c.03-7.74 6.02-13.68 13.78-13.65 7.44.02 13.53 6.12 13.59 13.44.07 7.88-6.42 13.92-13.74 13.88-7.55-.04-13.66-6.14-13.63-13.68Z" fill="#c3af94" data-color="2"/>
        <path d="M114.99 68.19c6.54-.24 12.56 5.45 12.52 12.56-.04 6.68-5.75 12.35-12.43 12.35-6.84 0-12.47-5.58-12.47-12.35 0-7.1 5.4-12.57 12.37-12.56Z" fill="#c3af94" data-color="2"/>
        <path d="M169.98 23.66c1.67 1.75 3.18 3.32 4.6 4.8-15.12 15.11-30.33 30.32-45.51 45.49-.53-.76-1.14-1.75-1.86-2.65-.71-.89-1.52-1.68-2.35-2.58 15.09-15.07 30.12-30.2 45.12-45.06" fill="#c3af94" data-color="2"/>
        <path d="M23.06 112.35a1779 1779 0 0 0-4.53-4.42c14.04-14.11 28.04-28.17 41.96-42.16 1.57 1.53 3.15 3.08 4.63 4.52-13.93 13.94-28 28-42.06 42.06" fill="#c3af94" data-color="2"/>
        <path d="M100.18 76.41c-4.75-2.81-9.43-5.59-13.97-8.27 1.25-1.96 2.46-3.84 3.71-5.8 3.25 1.91 6.65 3.89 10.04 5.89.99.58 1.96 1.18 2.94 1.77.52.31.56.53.18 1.11-.96 1.47-1.76 3.05-2.61 4.59-.1.18-.15.38-.28.71Z" fill="#c3af94" data-color="2"/>
    </g>
</svg>
