<?xml version="1.0" encoding="UTF-8"?>
<svg data-bbox="0 0 310.95 195.66" viewBox="0 0 310.95 195.66" xmlns="http://www.w3.org/2000/svg" data-type="color">
    <g>
        <path fill="#dad3c1" d="M263.17 0 157.38 195.66h48.53L310.95 0z" data-color="1"/>
        <path d="M134.27 72.64c2.3 37.26 3.7 60.73 4.21 70.42 6.12-13.78 17.47-37.12 34.06-70.04l3.44-6.65c-.18-6.12-.31-10.56-.4-13.29L172.93 0h-44.71z" fill="#dad3c1" data-color="1"/>
        <path d="M6.43 73.02c0 1.53 1.15 17.22 3.44 47.08.25 7.65.63 14.93 1.15 21.82 19.14-39.55 30.36-62.64 33.68-69.27l6.89-13.5c-.16-2.48-.29-4.38-.39-5.68L47.8 0H0z" fill="#dad3c1" data-color="1"/>
        <path d="M98.67 115.51c-2.05-19.65-3.58-39.67-4.59-60.09q-14.925 32.535-28.71 60.09l-41.59 80.15h46l30.53-61.76-1.65-18.39Z" fill="#dad3c1" data-color="1"/>
    </g>
</svg>
